<?xml version="1.0"?>
<svg xmlns="http://www.w3.org/2000/svg" fill="#f4be1d" viewBox="0 0 512 512" width="512" height="512"><g id="outline"><path d="M468,64H44A28.032,28.032,0,0,0,16,92V324a28.032,28.032,0,0,0,28,28H208v40H184a8,8,0,0,0-7.761,6.06l-8,32A8,8,0,0,0,176,440H336a8,8,0,0,0,7.761-9.94l-8-32A8,8,0,0,0,328,392H304V352H468a28.032,28.032,0,0,0,28-28V92A28.032,28.032,0,0,0,468,64ZM325.754,424H186.246l4-16H321.754ZM288,392H224V352h8a24,24,0,0,0,48,0h8Zm-24-40a8,8,0,0,1-16,0Zm216-28a12.013,12.013,0,0,1-12,12H44a12.013,12.013,0,0,1-12-12V92A12.013,12.013,0,0,1,44,80H468a12.013,12.013,0,0,1,12,12Z"/><path d="M456,96H56a8,8,0,0,0-8,8V312a8,8,0,0,0,8,8H456a8,8,0,0,0,8-8V104A8,8,0,0,0,456,96Zm-8,208H64V112H448Z"/><path d="M176,256H328a8,8,0,0,0,8-8V221.786l44.031,25.16A8,8,0,0,0,392,240V144a8,8,0,0,0-11.969-6.946L336,162.214V136a8,8,0,0,0-8-8H176a8,8,0,0,0-8,8V248A8,8,0,0,0,176,256Zm200-98.215v68.43l-40-22.858V180.643ZM184,144H320v96H184Z"/><path d="M302.4,163.2a8,8,0,0,0-11.2-1.6L272,176v-8a8,8,0,0,0-16,0v48a8,8,0,0,0,16,0v-8l19.2,14.4a8,8,0,0,0,9.6-12.8L277.333,192,300.8,174.4A8,8,0,0,0,302.4,163.2Z"/><path d="M240,192V168a8,8,0,0,0-16,0v24h-8V168a8,8,0,0,0-16,0v32a8,8,0,0,0,8,8h16v8a8,8,0,0,0,16,0v-8a8,8,0,0,0,0-16Z"/><circle cx="256" cy="280" r="10"/><circle cx="224" cy="280" r="8"/><circle cx="288" cy="280" r="8"/></g></svg>
