<?xml version="1.0"?>
<svg xmlns="http://www.w3.org/2000/svg" fill="#2cdbde" viewBox="0 0 512 512" width="512" height="512"><g id="outline"><path d="M120,168H88a8,8,0,0,0-8,8v48a8,8,0,0,0,8,8h32a8,8,0,0,0,8-8v64c0,61.814,44.044,113.533,102.4,125.426L225.754,432H216a56.063,56.063,0,0,0-56,56,8,8,0,0,0,8,8H344a8,8,0,0,0,8-8,56.063,56.063,0,0,0-56-56h-9.754L281.6,413.426C339.956,401.533,384,349.814,384,288V224a8,8,0,0,0,8,8h32a8,8,0,0,0,8-8V176a8,8,0,0,0-8-8H392a8,8,0,0,0-8,8H368a8,8,0,0,0-8-8h-8V112a96,96,0,0,0-192,0v56h-8a8,8,0,0,0-8,8H128A8,8,0,0,0,120,168ZM96,216V184h16v32ZM335.2,480H176.8A40.071,40.071,0,0,1,216,448h80A40.071,40.071,0,0,1,335.2,480Zm-69.442-64,4,16H242.246l4-16ZM368,288a112,112,0,0,1-224,0V224h16v64a96,96,0,0,0,192,0V224h16Zm-32-64v16H176V224ZM176,280V256H336v24Zm159.6,16a80,80,0,0,1-159.2,0ZM416,184v32H400V184Zm-32,8v16H368V192ZM176,112a80,80,0,0,1,160,0v56H176Zm176,72v24H160V184Zm-208,8v16H128V192Z"/><circle cx="256" cy="144" r="8"/><circle cx="256" cy="112" r="8"/><circle cx="256" cy="80" r="8"/><circle cx="256" cy="48" r="8"/><circle cx="288" cy="144" r="8"/><circle cx="288" cy="112" r="8"/><circle cx="288" cy="80" r="8"/><circle cx="288" cy="48" r="8"/><circle cx="320" cy="144" r="8"/><circle cx="320" cy="112" r="8"/><circle cx="320" cy="80" r="8"/><circle cx="224" cy="144" r="8"/><circle cx="224" cy="112" r="8"/><circle cx="224" cy="80" r="8"/><circle cx="224" cy="48" r="8"/><circle cx="192" cy="144" r="8"/><circle cx="192" cy="112" r="8"/><circle cx="192" cy="80" r="8"/><path d="M288.007,341.963a7.966,7.966,0,0,0,4.57-1.439,64.735,64.735,0,0,0,18.276-19.536,8,8,0,0,0-13.706-8.257,48.569,48.569,0,0,1-13.724,14.67,8,8,0,0,0,4.584,14.562Z"/><path d="M256,352a64.835,64.835,0,0,0,9.133-.647,8,8,0,1,0-2.266-15.839A48.783,48.783,0,0,1,256,336a8,8,0,0,0,0,16Z"/><path d="M136.005,136a8,8,0,0,0,6.242-13,55.722,55.722,0,0,1,0-70,8,8,0,0,0-12.494-10,72.034,72.034,0,0,0,0,90A7.984,7.984,0,0,0,136.005,136Z"/><path d="M105.973,152a8,8,0,0,0,6.07-13.207,78.047,78.047,0,0,1,0-101.586A8,8,0,0,0,99.9,26.793a94.05,94.05,0,0,0,0,122.414A7.984,7.984,0,0,0,105.973,152Z"/><path d="M371,134.247A8,8,0,0,0,382.247,133a72.034,72.034,0,0,0,0-90,8,8,0,0,0-12.494,10,55.722,55.722,0,0,1,0,70A8,8,0,0,0,371,134.247Z"/><path d="M400.825,150.074a8,8,0,0,0,11.28-.867,94.05,94.05,0,0,0,0-122.414,8,8,0,0,0-12.148,10.414,78.047,78.047,0,0,1,0,101.586A8,8,0,0,0,400.825,150.074Z"/></g></svg>
