<?xml version="1.0"?>
<svg xmlns="http://www.w3.org/2000/svg" fill="#2cdbde" viewBox="0 0 512 512" width="512" height="512"><g id="outline"><path d="M64,160a72,72,0,1,1,115.2,57.6,8,8,0,1,0,9.61,12.792A88,88,0,1,0,74.4,222.844a8,8,0,0,0,11.2-11.426A71.465,71.465,0,0,1,64,160Z"/><path d="M360,248A88.011,88.011,0,0,0,398.408,80.8,8,8,0,1,0,391.417,95.2a72,72,0,1,1-53.02-3.9A8,8,0,0,0,333.6,76.03,88.013,88.013,0,0,0,360,248Z"/><path d="M325,160a35,35,0,1,0,35-35A35.04,35.04,0,0,0,325,160Zm35-19a19,19,0,1,1-19,19A19.021,19.021,0,0,1,360,141Z"/><path d="M312,312H184a8,8,0,0,0-8,8v96a8,8,0,0,0,8,8H312a8,8,0,0,0,8-8V320A8,8,0,0,0,312,312Zm-8,96H192V328H304Z"/><path d="M219.794,398.805a8,8,0,0,0,7.784.35l48-24a8,8,0,0,0,0-14.31l-48-24A8,8,0,0,0,216,344v48A8,8,0,0,0,219.794,398.805ZM232,356.944,254.111,368,232,379.056Z"/><path d="M492.923,313.694a8,8,0,0,0-6.863-1.455L423.015,328H392a8,8,0,0,0-8,8H368V279.727a120,120,0,1,0-120-162.8A120,120,0,1,0,106.467,276.313,32.137,32.137,0,0,0,128,294.987V464a8,8,0,0,0,8,8H360a8,8,0,0,0,8-8V400h16a8,8,0,0,0,8,8h31.015l63.045,15.761A8,8,0,0,0,496,416V320A8,8,0,0,0,492.923,313.694ZM136,179a19,19,0,1,1,19-19A19.021,19.021,0,0,1,136,179Zm-10.7,54.848-2.974-41.634a34.974,34.974,0,0,0,27.358,0l-2.974,41.634a31.93,31.93,0,0,0-21.41,0ZM360,56A104,104,0,1,1,256,160,104.118,104.118,0,0,1,360,56ZM300.184,264H195.972a119.672,119.672,0,0,0,52.051-60.868A120.7,120.7,0,0,0,300.184,264ZM54.712,224.878A102.874,102.874,0,0,1,32,160a104,104,0,1,1,135.622,99.088,31.812,31.812,0,0,0-5.693-13.808l4.907-68.71c0-.011,0-.022,0-.033a35,35,0,1,0-61.674,0c0,.011,0,.022,0,.033l4.907,68.71a31.821,31.821,0,0,0-5.693,13.806A104.647,104.647,0,0,1,54.712,224.878ZM120,264a16,16,0,1,1,16,16A16.019,16.019,0,0,1,120,264ZM352,456H144V294.987A32.12,32.12,0,0,0,163.7,280H352V456Zm16-72V352h16v32Zm32-40h16v48H400Zm80,61.754-48-12V342.246l48-12Z"/><path d="M208,432h-8a8,8,0,0,0,0,16h8a8,8,0,0,0,0-16Z"/><path d="M248,432h-8a8,8,0,0,0,0,16h8a8,8,0,0,0,0-16Z"/><path d="M304,432H280a8,8,0,0,0,0,16h24a8,8,0,0,0,0-16Z"/></g></svg>
